<svg width="30" height="30" fill="none" xmlns="http://www.w3.org/2000/svg"><path d="M27.179 10.056c-.571-1.377-1.728-2.864-2.637-3.334.74 1.453 1.167 2.91 1.33 3.998l.003.022c-1.485-3.713-4.005-5.21-6.063-8.47a14.06 14.06 0 0 1-.31-.504c-.058-.1-.104-.19-.144-.274a2.396 2.396 0 0 1-.205-.543.034.034 0 0 0-.021-.012.047.047 0 0 0-.025 0 .025.025 0 0 0-.006.004c-.003 0-.007.004-.01.005l.006-.007c-3.302 1.938-4.422 5.523-4.525 7.316a6.576 6.576 0 0 0-3.62 1.397 3.889 3.889 0 0 0-.34-.257 6.117 6.117 0 0 1-.036-3.22c-1.35.617-2.4 1.59-3.164 2.45h-.006c-.52-.66-.484-2.842-.455-3.298-.006-.028-.388.199-.437.234-.46.328-.89.697-1.285 1.102-.449.457-.86.95-1.227 1.475a11.13 11.13 0 0 0-1.763 3.991l-.018.087c-.024.116-.114.696-.13.822v.03a12.585 12.585 0 0 0-.216 1.817v.067c0 7.274 5.884 13.171 13.142 13.171 6.5 0 11.898-4.73 12.955-10.942.021-.169.04-.339.06-.509.26-2.259-.03-4.633-.853-6.618ZM12.03 20.366c.061.03.119.062.182.09l.009.006a8.69 8.69 0 0 1-.191-.096Zm13.846-9.618v-.013.014-.001Z" fill="url(#a)"/><path d="M27.179 10.056c-.571-1.377-1.728-2.864-2.637-3.334.74 1.453 1.167 2.91 1.33 3.998v.027c1.241 3.37.565 6.796-.408 8.89-1.506 3.238-5.152 6.558-10.86 6.397-6.161-.176-11.593-4.764-12.607-10.768-.185-.947 0-1.428.093-2.197-.114.593-.157.764-.213 1.818v.067c0 7.274 5.884 13.171 13.142 13.171 6.5 0 11.897-4.73 12.954-10.942.022-.169.04-.339.06-.509.26-2.259-.03-4.633-.854-6.618Z" fill="url(#b)"/><path d="M27.179 10.056c-.571-1.377-1.728-2.864-2.637-3.334.74 1.453 1.167 2.91 1.33 3.998v.027c1.241 3.37.565 6.796-.408 8.89-1.506 3.238-5.152 6.558-10.86 6.397-6.161-.176-11.593-4.764-12.607-10.768-.185-.947 0-1.428.093-2.197-.114.593-.157.764-.213 1.818v.067c0 7.274 5.884 13.171 13.142 13.171 6.5 0 11.897-4.73 12.954-10.942.022-.169.04-.339.06-.509.26-2.259-.03-4.633-.854-6.618Z" fill="url(#c)"/><path d="M20.791 11.604c.03.02.055.04.082.06a7.148 7.148 0 0 0-1.22-1.595c-4.085-4.094-1.07-8.878-.563-9.121l.006-.007c-3.302 1.938-4.422 5.522-4.524 7.316.153-.01.305-.023.461-.023 2.464 0 4.61 1.358 5.758 3.37Z" fill="url(#d)"/><path d="M15.042 12.422c-.021.329-1.176 1.458-1.58 1.458-3.738 0-4.344 2.265-4.344 2.265.164 1.909 1.49 3.48 3.095 4.311.074.038.148.072.22.106.128.055.257.11.385.158.55.195 1.127.306 1.71.33 6.55.307 7.82-7.85 3.093-10.219 1.21-.21 2.467.278 3.168.771-1.148-2.011-3.294-3.37-5.758-3.37-.156 0-.308.014-.462.024a6.569 6.569 0 0 0-3.616 1.399c.2.17.427.397.903.867.894.884 3.181 1.793 3.186 1.9Z" fill="url(#e)"/><path d="M15.042 12.422c-.021.329-1.176 1.458-1.58 1.458-3.738 0-4.344 2.265-4.344 2.265.164 1.909 1.49 3.48 3.095 4.311.074.038.148.072.22.106.128.055.257.11.385.158.55.195 1.127.306 1.71.33 6.55.307 7.82-7.85 3.093-10.219 1.21-.21 2.467.278 3.168.771-1.148-2.011-3.294-3.37-5.758-3.37-.156 0-.308.014-.462.024a6.569 6.569 0 0 0-3.616 1.399c.2.17.427.397.903.867.894.884 3.181 1.793 3.186 1.9Z" fill="url(#f)"/><path d="m10.342 9.216.273.18a6.118 6.118 0 0 1-.037-3.218c-1.35.616-2.4 1.589-3.163 2.45.062-.002 1.968-.036 2.927.588Z" fill="url(#g)"/><path d="M1.997 15.266C3.01 21.27 8.443 25.858 14.609 26.033c5.707.162 9.351-3.158 10.86-6.397.973-2.094 1.648-5.52.408-8.89v-.025c0 .004 0 .008.003.022.466 3.051-1.082 6.007-3.503 8.006a.377.377 0 0 0-.007.017c-4.716 3.849-9.23 2.322-10.143 1.699a7.374 7.374 0 0 1-.191-.096c-2.75-1.315-3.886-3.828-3.643-5.981-2.321 0-3.113-1.963-3.113-1.963s2.084-1.49 4.832-.194c2.544 1.2 4.934.194 4.934.194-.005-.107-2.292-1.02-3.184-1.9-.476-.47-.702-.697-.903-.868a3.872 3.872 0 0 0-.34-.257 7.073 7.073 0 0 0-.274-.18c-.958-.625-2.865-.59-2.927-.589h-.006c-.522-.662-.485-2.843-.455-3.299-.006-.028-.389.2-.438.234a9.56 9.56 0 0 0-1.285 1.102c-.449.457-.86.95-1.227 1.475a11.13 11.13 0 0 0-1.763 3.991c-.01.025-.478 2.071-.247 3.132Z" fill="url(#h)"/><path d="M19.653 10.069a7.13 7.13 0 0 1 1.22 1.596c.07.051.135.106.198.164 2.979 2.75 1.42 6.64 1.302 6.92 2.42-1.998 3.968-4.954 3.502-8.005-1.485-3.715-4.005-5.212-6.063-8.471a14.06 14.06 0 0 1-.31-.505c-.058-.1-.104-.19-.145-.274a2.406 2.406 0 0 1-.204-.543.035.035 0 0 0-.021-.012.047.047 0 0 0-.025 0 .028.028 0 0 0-.006.004c-.003 0-.007.004-.01.005-.509.243-3.523 5.027.562 9.12Z" fill="url(#i)"/><path d="M21.07 11.826a2.575 2.575 0 0 0-.197-.164l-.082-.061c-.702-.493-1.959-.982-3.169-.771 4.727 2.368 3.458 10.526-3.092 10.218a5.83 5.83 0 0 1-1.71-.33 7.16 7.16 0 0 1-.386-.157 3.844 3.844 0 0 1-.219-.106l.009.005c.913.625 5.427 2.152 10.143-1.699l.008-.017c.116-.274 1.675-4.166-1.305-6.918Z" fill="url(#j)"/><path d="M9.117 16.145s.607-2.265 4.344-2.265c.404 0 1.56-1.13 1.58-1.458.022-.328-2.39 1.006-4.934-.194-2.747-1.296-4.832.194-4.832.194s.792 1.963 3.114 1.963c-.244 2.153.892 4.664 3.642 5.981.061.03.12.062.182.09-1.605-.83-2.93-2.402-3.096-4.31Z" fill="url(#k)"/><path d="M27.179 10.056c-.571-1.377-1.728-2.864-2.637-3.334.74 1.453 1.167 2.91 1.33 3.998l.003.022c-1.485-3.713-4.005-5.21-6.063-8.47a14.06 14.06 0 0 1-.31-.504c-.058-.1-.104-.19-.144-.274a2.396 2.396 0 0 1-.205-.543.034.034 0 0 0-.021-.012.047.047 0 0 0-.025 0 .025.025 0 0 0-.006.004c-.003 0-.007.004-.01.005l.006-.007c-3.302 1.938-4.422 5.523-4.525 7.316.154-.01.306-.023.462-.023 2.464 0 4.61 1.358 5.758 3.37-.701-.493-1.958-.982-3.168-.771 4.727 2.368 3.458 10.526-3.093 10.218a5.832 5.832 0 0 1-1.71-.33 7.13 7.13 0 0 1-.386-.158 3.843 3.843 0 0 1-.218-.105l.008.005a7.71 7.71 0 0 1-.19-.095c.06.029.119.061.182.09-1.609-.832-2.934-2.405-3.1-4.313 0 0 .607-2.266 4.344-2.266.404 0 1.56-1.13 1.58-1.457-.004-.107-2.291-1.02-3.183-1.9-.476-.47-.703-.697-.904-.868a3.905 3.905 0 0 0-.34-.257 6.118 6.118 0 0 1-.036-3.22c-1.35.617-2.4 1.59-3.164 2.45h-.006c-.521-.66-.484-2.842-.455-3.298-.006-.028-.388.199-.437.234-.46.328-.89.697-1.285 1.102-.45.457-.86.95-1.227 1.475a11.13 11.13 0 0 0-1.764 3.991l-.017.087c-.025.116-.136.704-.152.83 0-.009 0 .01 0 0a15.315 15.315 0 0 0-.196 1.839v.067c0 7.274 5.884 13.171 13.142 13.171 6.5 0 11.898-4.73 12.955-10.942.021-.169.04-.339.06-.509.26-2.259-.03-4.633-.853-6.618Z" fill="url(#l)"/><defs><radialGradient id="b" cx="0" cy="0" r="1" gradientUnits="userSpaceOnUse" gradientTransform="matrix(27.3981 0 0 27.4583 24.43 3.955)"><stop offset=".13" stop-color="#FFBD4F"/><stop offset=".19" stop-color="#FFAC31"/><stop offset=".25" stop-color="#FF9D17"/><stop offset=".28" stop-color="#FF980E"/><stop offset=".4" stop-color="#FF563B"/><stop offset=".47" stop-color="#FF3750"/><stop offset=".71" stop-color="#F5156C"/><stop offset=".78" stop-color="#EB0878"/><stop offset=".86" stop-color="#E50080"/></radialGradient><radialGradient id="c" cx="0" cy="0" r="1" gradientUnits="userSpaceOnUse" gradientTransform="matrix(27.3981 0 0 27.4583 14.42 15.18)"><stop offset=".3" stop-color="#960E18"/><stop offset=".35" stop-color="#B11927" stop-opacity=".74"/><stop offset=".43" stop-color="#DB293D" stop-opacity=".34"/><stop offset=".5" stop-color="#F5334B" stop-opacity=".09"/><stop offset=".53" stop-color="#FF3750" stop-opacity="0"/></radialGradient><radialGradient id="d" cx="0" cy="0" r="1" gradientUnits="userSpaceOnUse" gradientTransform="matrix(19.8488 0 0 19.8923 17.723 -2.276)"><stop offset=".13" stop-color="#FFF44F"/><stop offset=".25" stop-color="#FFDC3E"/><stop offset=".51" stop-color="#FF9D12"/><stop offset=".53" stop-color="#FF980E"/></radialGradient><radialGradient id="e" cx="0" cy="0" r="1" gradientUnits="userSpaceOnUse" gradientTransform="matrix(13.0453 0 0 13.0739 11.39 22.353)"><stop offset=".35" stop-color="#3A8EE6"/><stop offset=".47" stop-color="#5C79F0"/><stop offset=".67" stop-color="#9059FF"/><stop offset="1" stop-color="#C139E6"/></radialGradient><radialGradient id="f" cx="0" cy="0" r="1" gradientUnits="userSpaceOnUse" gradientTransform="rotate(-13.926 56.195 -54.684) scale(6.91234 8.13611)"><stop offset=".21" stop-color="#9059FF" stop-opacity="0"/><stop offset=".28" stop-color="#8C4FF3" stop-opacity=".06"/><stop offset=".75" stop-color="#7716A8" stop-opacity=".45"/><stop offset=".97" stop-color="#6E008B" stop-opacity=".6"/></radialGradient><radialGradient id="g" cx="0" cy="0" r="1" gradientUnits="userSpaceOnUse" gradientTransform="matrix(9.38512 0 0 9.40575 14.073 2.832)"><stop stop-color="#FFE226"/><stop offset=".12" stop-color="#FFDB27"/><stop offset=".3" stop-color="#FFC82A"/><stop offset=".5" stop-color="#FFA930"/><stop offset=".73" stop-color="#FF7E37"/><stop offset=".79" stop-color="#FF7139"/></radialGradient><radialGradient id="h" cx="0" cy="0" r="1" gradientUnits="userSpaceOnUse" gradientTransform="matrix(40.0415 0 0 40.1293 21.45 -3.134)"><stop offset=".11" stop-color="#FFF44F"/><stop offset=".46" stop-color="#FF980E"/><stop offset=".62" stop-color="#FF5634"/><stop offset=".72" stop-color="#FF3647"/><stop offset=".9" stop-color="#E31587"/></radialGradient><radialGradient id="i" cx="0" cy="0" r="1" gradientUnits="userSpaceOnUse" gradientTransform="rotate(84.245 8.098 10.345) scale(29.2496 19.1759)"><stop stop-color="#FFF44F"/><stop offset=".06" stop-color="#FFE847"/><stop offset=".17" stop-color="#FFC830"/><stop offset=".3" stop-color="#FF980E"/><stop offset=".36" stop-color="#FF8B16"/><stop offset=".45" stop-color="#FF672A"/><stop offset=".57" stop-color="#FF3647"/><stop offset=".74" stop-color="#E31587"/></radialGradient><radialGradient id="j" cx="0" cy="0" r="1" gradientUnits="userSpaceOnUse" gradientTransform="matrix(24.9979 0 0 25.0528 13.852 6.315)"><stop offset=".14" stop-color="#FFF44F"/><stop offset=".48" stop-color="#FF980E"/><stop offset=".59" stop-color="#FF5634"/><stop offset=".66" stop-color="#FF3647"/><stop offset=".9" stop-color="#E31587"/></radialGradient><radialGradient id="k" cx="0" cy="0" r="1" gradientUnits="userSpaceOnUse" gradientTransform="matrix(27.3604 0 0 27.4204 20.451 7.782)"><stop offset=".09" stop-color="#FFF44F"/><stop offset=".23" stop-color="#FFE141"/><stop offset=".51" stop-color="#FFAF1E"/><stop offset=".63" stop-color="#FF980E"/></radialGradient><linearGradient id="a" x1="25.439" y1="5.149" x2="3.576" y2="26.197" gradientUnits="userSpaceOnUse"><stop offset=".05" stop-color="#FFF44F"/><stop offset=".11" stop-color="#FFE847"/><stop offset=".22" stop-color="#FFC830"/><stop offset=".37" stop-color="#FF980E"/><stop offset=".4" stop-color="#FF8B16"/><stop offset=".46" stop-color="#FF672A"/><stop offset=".53" stop-color="#FF3647"/><stop offset=".7" stop-color="#E31587"/></linearGradient><linearGradient id="l" x1="25.177" y1="5.036" x2="6.572" y2="23.601" gradientUnits="userSpaceOnUse"><stop offset=".17" stop-color="#FFF44F" stop-opacity=".8"/><stop offset=".27" stop-color="#FFF44F" stop-opacity=".63"/><stop offset=".49" stop-color="#FFF44F" stop-opacity=".22"/><stop offset=".6" stop-color="#FFF44F" stop-opacity="0"/></linearGradient></defs></svg>