<svg width="59" height="60" viewBox="0 0 59 60" fill="none" xmlns="http://www.w3.org/2000/svg">
<g clip-path="url(#clip0_1_12210)">
<path d="M53.2488 10.4443C52.7988 8.04805 51.3625 6.8668 50.065 6.40555C48.6625 5.90305 45.8238 5.3818 42.2575 4.96555C39.3888 4.62805 36.0137 4.65805 33.9737 4.71805C33.73 3.0568 32.5525 1.53805 31.24 1.01305C27.7375 -0.385701 22.3225 -0.0482011 20.935 0.338049C19.8325 0.645549 18.61 1.2718 17.9275 2.2393C17.47 2.8843 17.1775 3.71305 17.1737 4.86805C17.1737 5.52055 17.1925 7.0618 17.2075 8.43055L17.2413 11.0405C17.2373 11.6314 16.9995 12.1966 16.58 12.6126C16.1605 13.0286 15.5933 13.2616 15.0025 13.2605H9.32125C8.11 13.2605 7.18375 13.463 6.47875 13.7818C5.77 14.1005 5.2675 14.5318 4.88875 15.038C4.13125 16.0468 4 17.2955 4 18.5668C4 18.5668 4.01125 19.6055 4.2625 21.6155C4.4725 23.1718 6.175 34.043 7.79125 37.3505C8.4175 38.6368 8.83375 39.173 10.0675 39.7393C12.8125 40.9055 19.0787 42.1993 22.015 42.5705C24.9475 42.9418 26.7887 43.7255 27.8837 41.4455C27.895 41.4418 28.1088 40.8793 28.4088 40.0543C29.1639 37.7174 29.53 35.2724 29.4925 32.8168C29.4925 32.6293 29.77 32.6218 29.77 32.8168C29.77 34.1143 29.5225 38.7043 33.0175 39.9343C34.3975 40.418 37.2625 40.853 40.1688 41.1905C42.7975 41.4905 44.7063 42.5181 44.7063 49.208C44.7063 53.2805 43.8438 53.8393 39.3363 53.8393C35.68 53.8393 34.2888 53.933 34.2888 51.053C34.2888 48.728 36.61 48.9718 38.3313 48.9718C39.1 48.9718 38.5413 48.4055 38.5413 46.9693C38.5413 45.5406 39.4412 44.7155 38.59 44.693C32.6425 44.5318 29.1438 44.6855 29.1438 52.0618C29.14 58.763 31.7238 60.0043 40.165 60.0043C46.7838 60.0043 49.1163 59.7906 51.85 51.3793C52.39 49.718 53.6988 44.6518 54.49 36.1505C54.9925 30.7693 54.0175 14.5393 53.2488 10.4443ZM41.71 28.3843C40.9286 28.355 40.1462 28.4014 39.3738 28.523C39.58 26.873 40.2663 24.8443 42.7038 24.9268C45.4038 25.0205 45.7788 27.548 45.79 29.2618C44.4973 28.7153 43.1131 28.4176 41.71 28.3843ZM9.05875 11.6255H14.74C15.0662 11.6255 15.3287 11.363 15.3287 11.0443C15.3287 11.0443 15.2612 6.2143 15.2612 4.87555V4.86055C15.2612 3.75805 15.4937 2.79805 15.9025 1.9918L16.0975 1.6318C16.0733 1.63624 16.051 1.64803 16.0338 1.66555L5.00125 12.5143C4.98168 12.5312 4.96737 12.5533 4.96 12.578L5.545 12.293C6.50125 11.858 7.66375 11.6255 9.05875 11.6255Z" fill="#29292B"/>
</g>
<defs>
<clipPath id="clip0_1_12210">
<rect width="58.628" height="60.0043" fill="white"/>
</clipPath>
</defs>
</svg>
