<svg width="61" height="60" viewBox="0 0 61 60" fill="none" xmlns="http://www.w3.org/2000/svg">
<path d="M46.6993 4.28796C49.3555 4.28796 51.6267 5.23104 53.5129 7.11721C55.3991 9.00337 56.3421 11.2746 56.3421 13.9308V46.0737C56.3421 48.7299 55.3991 51.0011 53.5129 52.8873C51.6267 54.7735 49.3555 55.7165 46.6993 55.7165H40.4046V35.7947H47.0676L48.0721 28.0268H40.4046V23.0714C40.4046 21.8214 40.6669 20.8839 41.1915 20.2589C41.716 19.6339 42.7372 19.3214 44.2551 19.3214L48.3399 19.288V12.3572C46.9337 12.1563 44.9471 12.0558 42.3801 12.0558C39.3444 12.0558 36.9169 12.9487 35.0977 14.7344C33.2785 16.5201 32.3689 19.0424 32.3689 22.3014V28.0268H25.6725V35.7947H32.3689V55.7165H14.5564C11.9002 55.7165 9.62898 54.7735 7.74282 52.8873C5.85665 51.0011 4.91357 48.7299 4.91357 46.0737V13.9308C4.91357 11.2746 5.85665 9.00337 7.74282 7.11721C9.62898 5.23104 11.9002 4.28796 14.5564 4.28796H46.6993Z" fill="#29292B"/>
</svg>
