<svg width="61" height="60" viewBox="0 0 61 60" fill="none" xmlns="http://www.w3.org/2000/svg">
<path d="M24.1993 40.7165C24.1993 41.6093 24.0598 42.5245 23.7808 43.462C23.5018 44.3995 23.0219 45.2477 22.3411 46.0066C21.6603 46.7656 20.8511 47.145 19.9136 47.145C18.9761 47.145 18.167 46.7656 17.4862 46.0066C16.8053 45.2477 16.3254 44.3995 16.0464 43.462C15.7674 42.5245 15.6279 41.6093 15.6279 40.7165C15.6279 39.8236 15.7674 38.9084 16.0464 37.9709C16.3254 37.0334 16.8053 36.1852 17.4862 35.4263C18.167 34.6674 18.9761 34.2879 19.9136 34.2879C20.8511 34.2879 21.6603 34.6674 22.3411 35.4263C23.0219 36.1852 23.5018 37.0334 23.7808 37.9709C24.0598 38.9084 24.1993 39.8236 24.1993 40.7165ZM45.6279 40.7165C45.6279 41.6093 45.4884 42.5245 45.2094 43.462C44.9303 44.3995 44.4504 45.2477 43.7696 46.0066C43.0888 46.7656 42.2797 47.145 41.3422 47.145C40.4047 47.145 39.5955 46.7656 38.9147 46.0066C38.2339 45.2477 37.754 44.3995 37.475 43.462C37.196 42.5245 37.0565 41.6093 37.0565 40.7165C37.0565 39.8236 37.196 38.9084 37.475 37.9709C37.754 37.0334 38.2339 36.1852 38.9147 35.4263C39.5955 34.6674 40.4047 34.2879 41.3422 34.2879C42.2797 34.2879 43.0888 34.6674 43.7696 35.4263C44.4504 36.1852 44.9303 37.0334 45.2094 37.9709C45.4884 38.9084 45.6279 39.8236 45.6279 40.7165ZM50.985 40.7165C50.985 38.0379 50.2149 35.7611 48.6748 33.8861C47.1346 32.0111 45.0475 31.0736 42.4136 31.0736C41.4984 31.0736 39.3221 31.308 35.8846 31.7767C34.2998 32.0223 32.5475 32.145 30.6279 32.145C28.7083 32.145 26.956 32.0223 25.3712 31.7767C21.9783 31.308 19.802 31.0736 18.8422 31.0736C16.2083 31.0736 14.1212 32.0111 12.581 33.8861C11.0408 35.7611 10.2708 38.0379 10.2708 40.7165C10.2708 42.6808 10.6279 44.3939 11.3422 45.856C12.0565 47.318 12.9605 48.4676 14.0542 49.3046C15.148 50.1417 16.5096 50.8113 18.1391 51.3136C19.7685 51.8158 21.331 52.145 22.8266 52.3013C24.3221 52.4575 25.985 52.5357 27.8154 52.5357H33.4404C35.2708 52.5357 36.9337 52.4575 38.4292 52.3013C39.9248 52.145 41.4873 51.8158 43.1167 51.3136C44.7462 50.8113 46.1078 50.1417 47.2016 49.3046C48.2953 48.4676 49.1993 47.318 49.9136 45.856C50.6279 44.3939 50.985 42.6808 50.985 40.7165ZM58.485 34.8236C58.485 39.4441 57.8042 43.1383 56.4426 45.9062C55.5944 47.6249 54.417 49.1093 52.9103 50.3593C51.4036 51.6093 49.8299 52.5691 48.1893 53.2388C46.5487 53.9084 44.6513 54.4386 42.4973 54.8292C40.3433 55.2198 38.4292 55.4653 36.7551 55.5658C35.081 55.6662 33.2172 55.7165 31.1636 55.7165C29.4225 55.7165 27.8377 55.683 26.4091 55.616C24.9806 55.5491 23.3344 55.4095 21.4705 55.1975C19.6067 54.9854 17.9047 54.6506 16.3645 54.193C14.8243 53.7354 13.2953 53.1607 11.7774 52.4687C10.2596 51.7767 8.90914 50.8727 7.72611 49.7566C6.54307 48.6406 5.58325 47.3571 4.84664 45.9062C3.46272 43.1607 2.77075 39.4665 2.77075 34.8236C2.77075 29.5334 4.28861 25.1138 7.32432 21.5647C6.72164 19.7343 6.42031 17.837 6.42031 15.8727C6.42031 13.2834 6.9895 10.8504 8.12789 8.57361C10.5386 8.57361 12.6591 9.01446 14.4895 9.89615C16.3199 10.7778 18.4292 12.1562 20.8176 14.0312C24.0989 13.2499 27.5475 12.8593 31.1636 12.8593C34.4672 12.8593 37.5922 13.2165 40.5386 13.9308C42.8824 12.1004 44.9694 10.7499 46.7998 9.87941C48.6301 9.00888 50.7395 8.57361 53.1279 8.57361C54.2663 10.8504 54.8355 13.2834 54.8355 15.8727C54.8355 17.8147 54.5341 19.6897 53.9315 21.4977C56.9672 25.0691 58.485 29.5111 58.485 34.8236Z" fill="#29292B"/>
</svg>
