<svg width="41" height="52" viewBox="0 0 41 52" fill="none" xmlns="http://www.w3.org/2000/svg">
<g clip-path="url(#clip0_1_12214)">
<path d="M0.63208 18.6665C0.63208 16.4829 1.08677 14.3149 2.00132 12.1678C2.91586 10.0206 4.22309 8.02419 5.92818 6.18896C7.63326 4.35373 9.87054 2.86162 12.6452 1.71785C15.4198 0.574083 18.4941 0.00219727 21.8681 0.00219727C27.3451 0.00219727 31.8403 1.70226 35.3538 5.09718C38.8673 8.4921 40.6241 12.4953 40.6241 17.1068C40.6241 23.0336 39.136 27.931 36.1547 31.7938C33.1734 35.6567 29.324 37.5907 24.6066 37.5907C23.0565 37.5907 21.5995 37.2267 20.2406 36.4989C18.8817 35.771 17.9258 34.8872 17.3729 33.8474L15.3061 42.0618C15.1356 42.722 14.9083 43.3875 14.6344 44.0634C14.3606 44.7392 14.0558 45.3891 13.7302 46.013C13.4047 46.6369 13.074 47.2243 12.7485 47.7806C12.423 48.3369 12.0923 48.8568 11.7668 49.3403C11.4413 49.8238 11.1571 50.2345 10.9143 50.5621C10.6714 50.8896 10.4492 51.1756 10.2426 51.4199L9.93255 51.8358C9.82921 51.9762 9.6897 52.0282 9.51919 51.9918C9.34868 51.9554 9.24534 51.8514 9.20918 51.6799C9.20918 51.6435 9.18334 51.4043 9.13167 50.952C9.08 50.4997 9.02833 50.0266 8.97666 49.5223C8.92499 49.018 8.87333 48.3681 8.82166 47.5727C8.76999 46.7772 8.75449 46.0026 8.76999 45.2591C8.78549 44.5157 8.83716 43.6891 8.92499 42.7896C9.01283 41.8902 9.14201 41.0584 9.31251 40.2941C9.6897 38.6669 10.9659 33.2391 13.136 24.0214C12.8622 23.4651 12.6348 22.7996 12.4643 22.0198C12.2938 21.2399 12.206 20.6057 12.206 20.1222L12.1543 19.3423C12.1543 17.1224 12.7124 15.2767 13.8336 13.8054C14.9548 12.3341 16.3034 11.5959 17.8896 11.5959C19.1658 11.5959 20.1527 12.0222 20.8606 12.8696C21.5685 13.7171 21.9198 14.7828 21.9198 16.067C21.9198 16.8624 21.7751 17.845 21.4806 19.0044C21.1861 20.1638 20.7986 21.4999 20.3181 23.0076C19.8375 24.5153 19.4914 25.737 19.2847 26.6729C18.9385 28.2325 19.2433 29.5843 20.1889 30.728C21.1344 31.8718 22.4003 32.4437 23.9866 32.4437C26.7096 32.4437 28.9572 30.8944 30.7294 27.7906C32.5017 24.6869 33.3904 20.9384 33.3904 16.5349C33.3904 13.1712 32.3053 10.4261 30.1352 8.29454C27.9651 6.16296 24.9321 5.09718 21.0414 5.09718C16.7012 5.09718 13.1774 6.5009 10.4751 9.30834C7.77277 12.1158 6.41904 15.4795 6.41904 19.3943C6.41904 21.7183 7.07524 23.6731 8.38247 25.2691C8.83199 25.789 8.96633 26.3453 8.79582 26.9328C8.72865 27.1044 8.62531 27.5047 8.48581 28.1286C8.3463 28.7524 8.24296 29.1528 8.17579 29.3243C8.10862 29.7039 7.93295 29.9586 7.6591 30.0782C7.38525 30.1978 7.07524 30.1926 6.72905 30.0522C4.69845 29.2204 3.17421 27.7906 2.15632 25.763C1.13844 23.7354 0.63208 21.3699 0.63208 18.6665Z" fill="#29292B"/>
</g>
<defs>
<clipPath id="clip0_1_12214">
<rect width="40" height="52" fill="white" transform="translate(0.62793 0.00219727)"/>
</clipPath>
</defs>
</svg>
