<svg width="61" height="60" viewBox="0 0 61 60" fill="none" xmlns="http://www.w3.org/2000/svg">
<path d="M55.6279 14.5022C53.7488 15.3175 51.7615 15.8564 49.7279 16.1022C51.8734 14.8205 53.4811 12.8042 54.2529 10.4272C52.2368 11.6274 50.0298 12.473 47.7279 12.9272C46.1893 11.2587 44.1404 10.148 41.9025 9.76936C39.6646 9.39075 37.3643 9.76563 35.3624 10.8352C33.3605 11.9048 31.7703 13.6086 30.841 15.6793C29.9118 17.7501 29.6962 20.0707 30.2279 22.2772C26.1515 22.071 22.164 21.0096 18.5246 19.1619C14.8851 17.3142 11.675 14.7215 9.10293 11.5522C8.20077 13.1277 7.72673 14.9118 7.72793 16.7272C7.72473 18.4132 8.13847 20.0738 8.93232 21.5611C9.72616 23.0485 10.8755 24.3165 12.2779 25.2522C10.6479 25.2079 9.05264 24.7705 7.62793 23.9772V24.1022C7.64015 26.4645 8.46792 28.75 9.97122 30.5721C11.4745 32.3943 13.5611 33.6413 15.8779 34.1022C14.9861 34.3736 14.0601 34.5168 13.1279 34.5272C12.4827 34.5197 11.839 34.4612 11.2029 34.3522C11.8627 36.3843 13.1395 38.1601 14.8556 39.4326C16.5717 40.7052 18.6419 41.4111 20.7779 41.4522C17.1709 44.2904 12.7176 45.8394 8.12793 45.8522C7.29227 45.855 6.45727 45.8049 5.62793 45.7022C10.314 48.7279 15.775 50.334 21.3529 50.3272C25.2022 50.3672 29.0208 49.6398 32.5857 48.1874C36.1507 46.7351 39.3905 44.5869 42.1159 41.8685C44.8414 39.15 46.9978 35.9157 48.4593 32.3545C49.9208 28.7933 50.658 24.9766 50.6279 21.1272C50.6279 20.7022 50.6279 20.2522 50.6279 19.8022C52.5897 18.3393 54.2816 16.5458 55.6279 14.5022Z" fill="#29292B"/>
</svg>
