<svg width="61" height="60" viewBox="0 0 61 60" fill="none" xmlns="http://www.w3.org/2000/svg">
<path d="M58.128 24.2772C58.2516 20.6988 57.4691 17.1472 55.853 13.9522C54.7565 12.6412 53.2348 11.7564 51.553 11.4522C44.5968 10.821 37.6118 10.5623 30.628 10.6772C23.6696 10.5571 16.7098 10.8074 9.778 11.4272C8.40755 11.6764 7.13929 12.3193 6.128 13.2772C3.878 15.3522 3.628 18.9022 3.378 21.9022C3.01528 27.2961 3.01528 32.7082 3.378 38.1022C3.45032 39.7907 3.70173 41.4667 4.128 43.1022C4.42943 44.3648 5.0393 45.533 5.903 46.5022C6.92117 47.5108 8.21896 48.1902 9.628 48.4522C15.0178 49.1175 20.4485 49.3932 25.878 49.2772C34.628 49.4022 42.303 49.2772 51.378 48.5772C52.8216 48.3313 54.156 47.651 55.203 46.6272C55.9029 45.9269 56.4257 45.0699 56.728 44.1272C57.6221 41.3837 58.0612 38.5124 58.028 35.6272C58.128 34.2272 58.128 25.7772 58.128 24.2772ZM24.978 37.1272V21.6522L39.778 29.4272C35.628 31.7272 30.153 34.3272 24.978 37.1272Z" fill="#29292B"/>
</svg>
